<?xml version="1.0" encoding="utf-8"?>
<!-- Generated by IcoMoon.io -->
<!DOCTYPE svg PUBLIC "-//W3C//DTD SVG 1.1//EN" "http://www.w3.org/Graphics/SVG/1.1/DTD/svg11.dtd">
<svg version="1.1" xmlns="http://www.w3.org/2000/svg" xmlns:xlink="http://www.w3.org/1999/xlink" width="512" height="512" viewBox="0 0 512 512">
<g id="icomoon-ignore">
</g>
<path d="M446.208 256.16c20.032-22.224 34.384-44.112 42.752-65.136 9.664-24.4 9.312-45.584-1.024-62.944-10.384-17.392-29.408-28.288-56.496-32.368-23.248-3.52-50.224-2.608-80.464 2.72-10.016-27.76-22.608-50.608-37.456-67.984-17.296-20.224-36.704-30.464-57.632-30.464-20.992 0-40.384 10.304-57.664 30.64-14.864 17.472-27.344 40.336-37.168 68.032-30.256-5.504-57.216-6.464-80.464-2.96-27.088 4.096-46.096 14.992-56.512 32.4-10.336 17.36-10.688 38.528-1.024 62.928 8.32 20.976 22.752 42.848 42.96 65.104-20.192 22.304-34.576 44.144-42.8 65.024-9.6 24.32-9.184 45.44 1.184 62.752 10.352 17.392 29.312 28.336 56.304 32.512 23.168 3.616 50.128 2.688 80.368-2.8 9.984 27.664 22.496 50.496 37.28 67.92 17.184 20.24 36.528 30.48 57.536 30.48 20.944 0 40.336-10.256 57.632-30.464 14.832-17.36 27.408-40.256 37.424-68.128 30.24 5.76 57.12 6.864 80.224 3.264 26.864-4.176 45.856-15.072 56.496-32.512 10.352-17.36 10.704-38.528 1.008-62.944-8.32-20.912-22.576-42.784-42.464-65.072zM221.504 460.864c-10.8-13.776-20.112-32.208-27.728-54.8 20.992-5.712 41.92-12.976 62.352-21.664 20.512 8.8 41.408 16.064 62.336 21.664-7.744 22.544-17.168 40.944-28.080 54.752-22.288 28.272-46.752 28.272-68.88 0.048zM290.368 51.28c10.896 13.904 20.336 32.352 28.080 54.912-19.504 5.264-40.384 12.448-62.32 21.472-21.296-8.672-42.304-16-62.608-21.792 7.744-22.336 17.136-40.688 27.984-54.592 22.16-28.4 46.576-28.4 68.864 0zM375.76 236.864c8.528 6.688 16.32 13.168 23.28 19.392-4.736 4.368-9.68 8.704-14.784 12.896-2.8 2.288-5.632 4.592-8.496 6.928 0.272-7.040 0.384-13.792 0.384-20.192 0.016-5.84-0.112-12.208-0.384-19.024zM372.304 192.304c-2.512-21.968-6.496-43.040-11.856-62.832 24.288-4.784 45.68-6.192 63.664-4.16 18.352 2.064 30.656 8.064 36.528 17.728 6 10.064 5.344 22.928-2.032 39.312-7.12 15.904-19.104 32.896-35.68 50.592-15.664-14.336-32.624-27.968-50.624-40.64zM256.144 347.776c-14.416-6.4-28.752-13.632-42.608-21.472-15.808-9.056-29.328-17.344-40.256-24.64-1.2-13.328-1.808-28.72-1.808-45.792 0-17.056 0.608-32.336 1.792-45.504 11.84-7.728 25.536-16.032 40.64-24.576 13.6-7.392 27.776-14.512 42.224-21.2 14.4 6.752 28.592 13.856 42.064 21.072 14.176 8.144 27.872 16.368 40.816 24.544 1.2 13.44 1.792 28.768 1.792 45.664 0 17.072-0.592 32.544-1.792 46.032-12 7.872-25.584 16.064-40.512 24.416-13.392 7.68-27.6 14.896-42.352 21.456zM315.776 156.768c-5.312-2.992-11.232-6.16-17.696-9.52 10.24-3.728 20.128-7.008 29.552-9.792 2.32 9.728 4.32 19.6 5.968 29.504-5.696-3.408-11.648-6.816-17.824-10.192zM184.592 137.536c9.6 2.912 19.328 6.176 29.136 9.76-6.080 3.072-11.904 6.24-17.44 9.424-6.192 3.408-12.144 6.8-17.792 10.192 1.728-10 3.76-19.84 6.096-29.376zM136.528 275.824c-8.608-6.608-16.48-13.184-23.584-19.664 7.232-6.512 15.072-12.992 23.488-19.392-0.208 6.24-0.304 12.576-0.304 19.088 0.016 6.896 0.144 13.568 0.4 19.968zM151.648 128.992c-5.36 20.384-9.28 41.456-11.664 62.784-18.56 13.216-35.632 27.024-50.896 41.136-16.576-17.664-28.608-34.656-35.84-50.608-7.408-16.336-8.032-29.152-1.872-39.2 6-9.872 17.952-15.728 36.56-17.92 5.632-0.656 11.648-0.992 17.872-0.992 13.744 0 29.136 1.616 45.84 4.8zM53.408 329.904c7.152-15.952 19.056-32.928 35.424-50.528 15.424 14.288 32.576 28.176 51.136 41.376 2.384 21.28 6.304 42.096 11.648 62.048-24.256 4.768-45.632 6.176-63.584 4.176-18.464-2.096-30.368-7.984-36.432-18.144-6.128-9.84-5.536-22.56 1.808-38.928zM195.76 355.12c5.568 3.312 11.616 6.608 18.096 9.904-10.128 3.728-19.968 6.96-29.424 9.648-2.32-9.696-4.272-19.44-5.856-29.136 5.728 3.408 11.488 6.624 17.184 9.584zM327.648 374.704c-9.536-2.688-19.392-5.904-29.52-9.648 5.76-2.96 11.84-6.224 18.176-9.792 5.888-3.264 11.664-6.544 17.232-9.792-1.776 10.432-3.744 20.192-5.888 29.232zM360.32 382.848c5.232-20.016 9.152-40.912 11.68-62.336 18.464-13.104 35.536-26.912 50.88-41.104 16.384 17.792 28.304 34.864 35.456 50.768 7.344 16.384 8 29.136 2.032 39.008-5.904 9.76-18.16 15.776-36.416 17.92-5.36 0.624-11.088 0.96-17.024 0.96-13.936-0.016-29.568-1.76-46.608-5.216z"></path>
</svg>
